<svg width="26" height="26" viewBox="0 0 26 26" fill="none" xmlns="http://www.w3.org/2000/svg">
<path d="M7.58337 4.33325V2.70825" stroke="white" stroke-width="2" stroke-linecap="round"/>
<path d="M18.4166 4.33325V2.70825" stroke="white" stroke-width="2" stroke-linecap="round"/>
<path d="M9.75 15.7083L11.375 14.0833V18.4166" stroke="white" stroke-width="2" stroke-linecap="round" stroke-linejoin="round"/>
<path d="M14.0834 17.3333V15.1666C14.0834 14.5683 14.5684 14.0833 15.1667 14.0833C15.765 14.0833 16.25 14.5683 16.25 15.1666V17.3333C16.25 17.9316 15.765 18.4166 15.1667 18.4166C14.5684 18.4166 14.0834 17.9316 14.0834 17.3333Z" stroke="white" stroke-width="2" stroke-linecap="round"/>
<path d="M23.2916 9.75H18.0104H11.6458M2.16663 9.75H6.36454" stroke="white" stroke-width="2" stroke-linecap="round"/>
<path d="M15.1666 23.8333H10.8333C6.74778 23.8333 4.70504 23.8333 3.43583 22.564C2.16663 21.2949 2.16663 19.2521 2.16663 15.1666V12.9999C2.16663 8.91441 2.16663 6.87166 3.43583 5.60245C4.70504 4.33325 6.74778 4.33325 10.8333 4.33325H15.1666C19.2521 4.33325 21.2949 4.33325 22.5641 5.60245C23.8333 6.87166 23.8333 8.91441 23.8333 12.9999V15.1666C23.8333 19.2521 23.8333 21.2949 22.5641 22.564C21.8564 23.2717 20.9084 23.5847 19.5 23.7233" stroke="white" stroke-width="2" stroke-linecap="round"/>
</svg>
