<svg width="30" height="30" viewBox="0 0 30 30" fill="none" xmlns="http://www.w3.org/2000/svg">
<path d="M18.0683 11.0712C17.6095 10.6124 16.8656 10.6123 16.4069 11.0711C15.9481 11.5299 15.9481 12.2738 16.4069 12.7324C17.6569 13.9826 17.6569 16.0169 16.4069 17.2671C15.9481 17.7259 15.9481 18.4698 16.4069 18.9284C16.6362 19.1577 16.937 19.2724 17.2376 19.2724C17.5382 19.2724 17.8389 19.1577 18.0683 18.9283C20.2345 16.7622 20.2345 13.2374 18.0683 11.0712Z" fill="white"/>
<path d="M21.5117 7.62768C21.0529 7.16903 20.309 7.16903 19.8503 7.62768C19.3915 8.08664 19.3915 8.83038 19.8503 9.28918C22.9992 12.438 22.9992 17.5616 19.8503 20.7103C19.3915 21.1693 19.3915 21.913 19.8503 22.3718C20.0797 22.6011 20.3804 22.7158 20.681 22.7158C20.9816 22.7158 21.2824 22.6011 21.5117 22.3718C25.5766 18.3069 25.5766 11.6927 21.5117 7.62768Z" fill="white"/>
<path d="M25.3545 3.7849C24.8958 3.32641 24.1519 3.3261 23.6931 3.7849C23.2343 4.24387 23.2343 4.98761 23.6931 5.44641C26.245 7.99827 27.6504 11.3911 27.6504 14.9999C27.6504 18.6088 26.245 22.0016 23.6931 24.5533C23.2343 25.0123 23.2343 25.756 23.6931 26.2148C23.9224 26.4442 24.2232 26.5588 24.5238 26.5588C24.8244 26.5588 25.1251 26.4442 25.3545 26.2148C28.3501 23.2192 29.9998 19.2363 29.9998 14.9997C30 10.7635 28.3501 6.78069 25.3545 3.7849Z" fill="white"/>
<path d="M13.3087 3.072C12.8914 2.88011 12.4008 2.94919 12.0527 3.24853L4.58759 9.66367H1.17482C0.526005 9.66367 0 10.1895 0 10.8385V19.1615C0 19.8105 0.526005 20.3363 1.17482 20.3363H4.58759L12.0527 26.7515C12.2701 26.9382 12.5428 27.0353 12.8187 27.0353C12.9847 27.0353 13.1519 27.0001 13.3087 26.928C13.7259 26.7364 13.9933 26.3195 13.9933 25.8605V4.13952C13.9933 3.68055 13.7258 3.26341 13.3087 3.072ZM2.34964 12.0133H3.84823V17.9867H2.34964V12.0133ZM11.6437 23.3017L6.19787 18.6219V11.378L11.6437 6.69811V23.3017Z" fill="white"/>
</svg>
