<svg width="30" height="30" viewBox="0 0 30 30" fill="none" xmlns="http://www.w3.org/2000/svg">
<path d="M19.7084 12.4166H21.7917C23.875 12.4166 24.9167 11.3749 24.9167 9.29159V7.20825C24.9167 5.12492 23.875 4.08325 21.7917 4.08325H19.7084C17.625 4.08325 16.5834 5.12492 16.5834 7.20825V9.29159C16.5834 11.3749 17.625 12.4166 19.7084 12.4166Z" stroke="white" stroke-width="2" stroke-miterlimit="10" stroke-linecap="round" stroke-linejoin="round"/>
<path d="M7.20837 24.9166H9.29171C11.375 24.9166 12.4167 23.8749 12.4167 21.7916V19.7083C12.4167 17.6249 11.375 16.5833 9.29171 16.5833H7.20837C5.12504 16.5833 4.08337 17.6249 4.08337 19.7083V21.7916C4.08337 23.8749 5.12504 24.9166 7.20837 24.9166Z" stroke="white" stroke-width="2" stroke-miterlimit="10" stroke-linecap="round" stroke-linejoin="round"/>
<path d="M8.25004 12.4166C10.5512 12.4166 12.4167 10.5511 12.4167 8.24992C12.4167 5.94873 10.5512 4.08325 8.25004 4.08325C5.94885 4.08325 4.08337 5.94873 4.08337 8.24992C4.08337 10.5511 5.94885 12.4166 8.25004 12.4166Z" stroke="white" stroke-width="2" stroke-miterlimit="10" stroke-linecap="round" stroke-linejoin="round"/>
<path d="M20.75 24.9166C23.0512 24.9166 24.9167 23.0511 24.9167 20.7499C24.9167 18.4488 23.0512 16.5833 20.75 16.5833C18.4489 16.5833 16.5834 18.4488 16.5834 20.7499C16.5834 23.0511 18.4489 24.9166 20.75 24.9166Z" stroke="white" stroke-width="2" stroke-miterlimit="10" stroke-linecap="round" stroke-linejoin="round"/>
</svg>
