<svg width="30" height="30" viewBox="0 0 30 30" fill="none" xmlns="http://www.w3.org/2000/svg">
<path d="M19.6436 13.8193C19.4355 13.7285 19.2275 13.6465 19.0166 13.5703C20.4756 12.3896 21.4072 10.5879 21.4072 8.57227C21.4072 5.02734 18.5244 2.14453 14.9795 2.14453C11.4346 2.14453 8.55176 5.02734 8.55176 8.57227C8.55176 10.5908 9.48633 12.3955 10.9453 13.5732C6.42773 15.2227 3.19336 19.5645 3.19336 24.6475H5.33496C5.33496 19.3301 9.66211 15.0059 14.9766 15.0059C16.3037 15.0059 17.5869 15.2695 18.791 15.7881L19.6436 13.8193ZM14.9795 4.28613C17.3438 4.28613 19.2656 6.20801 19.2656 8.57227C19.2656 10.9365 17.3438 12.8584 14.9795 12.8584C12.6152 12.8584 10.6934 10.9336 10.6934 8.57227C10.6934 6.21094 12.6152 4.28613 14.9795 4.28613ZM17.9443 18.6475C17.9443 18.9463 18.1084 19.2188 18.3721 19.3564L22.1221 21.3369C22.2393 21.3984 22.3682 21.4307 22.4971 21.4307C22.626 21.4307 22.7549 21.3984 22.8721 21.3369L26.6221 19.3564C26.8857 19.2158 27.0498 18.9434 27.0498 18.6475C27.0498 18.3516 26.8857 18.0762 26.6221 17.9385L22.8721 15.9551C22.6377 15.832 22.3564 15.832 22.1221 15.9551L18.3721 17.9385C18.1084 18.0762 17.9443 18.3486 17.9443 18.6475ZM22.4971 17.5752L24.5273 18.6475L22.4971 19.7197L20.4668 18.6475L22.4971 17.5752Z" fill="white"/>
<path d="M22.4971 22.3652L18.1904 20.0889L17.4404 21.5098L22.4971 24.1816L27.5332 21.5215L26.7832 20.1006L22.4971 22.3652Z" fill="white"/>
<path d="M22.4971 24.9434L18.1904 22.6699L17.4404 24.0879L22.4971 26.7627L27.5156 24.1084L26.7656 22.6875L22.4971 24.9434Z" fill="white"/>
</svg>
