<svg width="16" height="16" viewBox="0 0 16 16" fill="none" xmlns="http://www.w3.org/2000/svg">
<path d="M5.81245 10.5073H5.72495C5.5937 10.4573 4.32495 9.75732 4.32495 8.80732V7.75732C4.32495 7.60732 4.41245 7.50732 4.5437 7.50732C4.67495 7.50732 4.76245 7.60732 4.76245 7.75732V8.80732C4.76245 9.30732 5.46245 9.80732 5.81245 10.0073C6.16245 9.80732 6.86245 9.30732 6.86245 8.80732V7.75732C6.86245 7.60732 6.94995 7.50732 7.0812 7.50732C7.21245 7.50732 7.29995 7.60732 7.29995 7.75732V8.80732C7.29995 9.75732 6.0312 10.4073 5.89995 10.5073H5.81245Z" fill="#000100" stroke="black" stroke-width="0.25"/>
<path d="M5.8125 9.5C4.36875 9.5 3.1875 8.15 3.1875 6.5V5.75C3.1875 5.6 3.275 5.5 3.40625 5.5C3.5375 5.5 3.625 5.6 3.625 5.75V6.5C3.625 7.9 4.5875 9 5.8125 9C7.0375 9 8 7.9 8 6.5V5.75C8 5.6 8.0875 5.5 8.21875 5.5C8.35 5.5 8.4375 5.6 8.4375 5.75V6.5C8.4375 8.15 7.25625 9.5 5.8125 9.5Z" fill="#000100" stroke="black" stroke-width="0.25"/>
<path d="M8.21883 5.90007H8.08758C7.95633 5.90007 7.86883 5.80007 7.86883 5.65007C7.86883 5.50007 7.95633 5.40007 8.04383 5.40007L8.43758 4.15007C8.48133 3.95007 8.43758 3.70007 8.30633 3.55007C8.17508 3.35007 8.00008 3.25007 7.78133 3.25007C7.65008 3.25007 7.56258 3.15007 7.56258 3.00007C7.56258 2.70007 7.43133 2.40007 7.25633 2.20007C7.08133 2.00007 6.81883 1.95007 6.55633 2.00007L3.93133 2.50007C3.71258 2.55007 3.49383 2.70007 3.36258 2.90007C3.23133 3.15007 3.14383 3.40007 3.18758 3.70007L3.58133 5.40007C3.66883 5.40007 3.75633 5.50007 3.75633 5.65007C3.75633 5.80007 3.66883 5.90007 3.53758 5.90007H3.40633C3.31883 5.90007 3.23133 5.80007 3.18758 5.70007L2.75008 3.80007C2.66258 3.40007 2.75008 3.00007 2.96883 2.65007C3.18758 2.30007 3.49383 2.10007 3.84383 2.00007L6.46883 1.50007C6.86258 1.45007 7.21258 1.55007 7.51883 1.85007C7.78133 2.10007 7.91258 2.45007 7.95633 2.80007C8.21883 2.85007 8.43758 3.00007 8.61258 3.25007C8.83133 3.55007 8.91883 3.95007 8.83133 4.30007L8.39383 5.70007C8.39383 5.80007 8.30633 5.90007 8.21883 5.90007Z" fill="#000100" stroke="black" stroke-width="0.25"/>
<path d="M8.175 5.90008H8.04375C7.7375 5.90008 7.43125 5.60008 7.43125 5.20008V4.45008C6.64375 5.10008 5.59375 5.35008 4.63125 5.15008L4.2375 5.05008C4.19375 5.05008 4.10625 5.15008 4.10625 5.25008C4.10625 5.60008 3.84375 5.95008 3.49375 5.95008H3.45C3.31875 5.95008 3.23125 5.85008 3.23125 5.70008C3.23125 5.55008 3.31875 5.45008 3.45 5.45008H3.58125C3.66875 5.45008 3.75625 5.35008 3.75625 5.25008C3.75625 4.90008 4.01875 4.55008 4.36875 4.55008L4.80625 4.65008C5.68125 4.85008 6.6 4.60008 7.3 4.00008C7.43125 3.90008 7.60625 3.90008 7.7375 3.95008C7.86875 4.05008 7.95625 4.20008 7.95625 4.35008V5.20008C7.95625 5.30008 8.04375 5.40008 8.13125 5.40008H8.2625C8.39375 5.40008 8.48125 5.50008 8.48125 5.65008C8.48125 5.80008 8.30625 5.90008 8.175 5.90008ZM10.4062 15.0001H1.21875C1.0875 15.0001 1 14.9001 1 14.7501V12.9001C1 11.9001 1.56875 11.0001 2.4 10.6501L4.45625 9.85008C4.5875 9.80008 4.675 9.90008 4.71875 10.0001C4.7625 10.1001 4.675 10.2501 4.5875 10.3001L2.53125 11.1001C1.875 11.4001 1.4375 12.1001 1.4375 12.9001V14.5001H10.1875V12.9001C10.1875 12.1001 9.75 11.4001 9.09375 11.1501L7.0375 10.3501C6.90625 10.3001 6.8625 10.1501 6.90625 10.0501C6.95 9.90008 7.08125 9.85008 7.16875 9.90008L9.225 10.7001C10.0562 11.0001 10.625 11.9001 10.625 12.9501V14.8001C10.625 14.9001 10.5375 15.0001 10.4062 15.0001Z" fill="#000100" stroke="black" stroke-width="0.25"/>
<path d="M10.4062 15H8.21875C8.0875 15 8 14.9 8 14.75V14.35C8 12.95 8.91875 11.75 10.1438 11.6C10.2312 11.6 10.3187 11.65 10.3625 11.7C10.5375 12.05 10.6687 12.5 10.6687 12.9V14.75C10.625 14.9 10.5375 15 10.4062 15ZM8.4375 14.5H10.1875V12.9C10.1875 12.65 10.1438 12.35 10.0125 12.1C9.09375 12.3 8.39375 13.25 8.39375 14.35V14.5H8.4375ZM3.40625 15H1.21875C1.0875 15 1 14.9 1 14.75V12.9C1 12.5 1.0875 12.05 1.30625 11.7C1.35 11.6 1.4375 11.55 1.525 11.6C2.70625 11.75 3.625 12.95 3.625 14.35V14.75C3.625 14.9 3.5375 15 3.40625 15ZM1.4375 14.5H3.1875V14.35C3.1875 13.25 2.4875 12.35 1.56875 12.1C1.48125 12.35 1.4375 12.65 1.4375 12.9V14.5ZM8 8.3H6.46875C6.3375 8.3 6.25 8.2 6.25 8.05C6.25 7.9 6.3375 7.8 6.46875 7.8H8C8.48125 7.8 8.875 7.35 8.875 6.8V5.95C8.875 5.8 8.9625 5.7 9.09375 5.7C9.225 5.7 9.3125 5.8 9.3125 5.95V6.8C9.3125 7.6 8.7 8.3 8 8.3ZM11.5 2.5C11.3687 2.5 11.2812 2.4 11.2812 2.25V1.25C11.2812 1.1 11.3687 1 11.5 1C11.6313 1 11.7188 1.1 11.7188 1.25V2.25C11.7188 2.4 11.6313 2.5 11.5 2.5ZM11.5 9C11.3687 9 11.2812 8.9 11.2812 8.75V7.75C11.2812 7.6 11.3687 7.5 11.5 7.5C11.6313 7.5 11.7188 7.6 11.7188 7.75V8.75C11.7188 8.9 11.6313 9 11.5 9Z" fill="#000100" stroke="black" stroke-width="0.25"/>
<path d="M11.5 2C11.3687 2 11.2812 1.9 11.2812 1.75V1.25C11.2812 1.1 11.3687 1 11.5 1C11.6312 1 11.7188 1.1 11.7188 1.25V1.75C11.7188 1.9 11.6312 2 11.5 2ZM11.5 9C11.3687 9 11.2812 8.9 11.2812 8.75V8.25C11.2812 8.1 11.3687 8 11.5 8C11.6312 8 11.7188 8.1 11.7188 8.25V8.75C11.7188 8.9 11.6312 9 11.5 9ZM12.8563 2.4C12.8125 2.4 12.7687 2.4 12.7687 2.35C12.6812 2.3 12.6375 2.15 12.6813 2L12.9 1.55C12.9438 1.45 13.075 1.4 13.2062 1.45C13.2937 1.5 13.3375 1.65 13.2938 1.8L13.075 2.25C13.0313 2.35 12.9438 2.4 12.8563 2.4ZM13.9938 3.65C13.9063 3.65 13.8625 3.6 13.8187 3.5C13.775 3.4 13.775 3.25 13.9062 3.15L14.3 2.9C14.3437 2.85 14.475 2.9 14.5625 3C14.6063 3.1 14.6062 3.25 14.475 3.35L14.0812 3.6C14.0375 3.6 13.9938 3.65 13.9938 3.65ZM14.7812 5.25H13.9062C13.775 5.25 13.6875 5.15 13.6875 5C13.6875 4.85 13.775 4.75 13.9062 4.75H14.7812C14.9125 4.75 15 4.85 15 5C15 5.15 14.9125 5.25 14.7812 5.25ZM13.25 6H11.9375C11.8938 6 11.8063 5.95 11.7625 5.9C11.7188 5.85 11.7188 5.75 11.7188 5.7L12.0687 3.7C12.0687 3.55 12.2 3.5 12.2875 3.5C12.4187 3.55 12.5063 3.65 12.4625 3.8L12.2 5.5H13.25C13.3812 5.5 13.4688 5.6 13.4688 5.75C13.4688 5.9 13.3812 6 13.25 6Z" fill="#000100" stroke="black" stroke-width="0.25"/>
<path d="M12.8125 6.50012C12.6813 6.50012 12.5938 6.40012 12.5938 6.25012V4.75012C12.5938 4.60012 12.6813 4.50012 12.8125 4.50012C12.9438 4.50012 13.0313 4.60012 13.0313 4.75012V6.25012C13.0313 6.40012 12.9438 6.50012 12.8125 6.50012ZM11.0625 6.50012H9.75C9.6625 6.50012 9.575 6.45012 9.53125 6.35012C9.4875 6.25012 9.53125 6.15012 9.575 6.10012L10.7125 4.85012C10.8 4.75012 10.8438 4.65012 10.8438 4.50012C10.8438 4.20012 10.6688 4.00012 10.4063 4.00012C10.1438 4.00012 9.96875 4.20012 9.96875 4.50012C9.96875 4.65012 9.88125 4.75012 9.75 4.75012C9.61875 4.75012 9.53125 4.60012 9.53125 4.50012C9.53125 3.95012 9.925 3.50012 10.4063 3.50012C10.8875 3.50012 11.2813 3.95012 11.2813 4.50012C11.2813 4.75012 11.1938 5.00012 11.0188 5.20012L10.275 6.00012H11.0625C11.1938 6.00012 11.2813 6.10012 11.2813 6.25012C11.2813 6.40012 11.1938 6.50012 11.0625 6.50012ZM3.40625 7.00012H2.96875C2.61875 7.00012 2.3125 6.65012 2.3125 6.25012V5.75012C2.3125 5.35012 2.61875 5.00012 2.96875 5.00012H3.1875C3.31875 5.00012 3.40625 5.10012 3.40625 5.25012C3.40625 5.40012 3.31875 5.50012 3.1875 5.50012H2.96875C2.8375 5.50012 2.75 5.60012 2.75 5.75012V6.25012C2.75 6.40012 2.8375 6.50012 2.96875 6.50012H3.1875V6.00012C3.1875 5.85012 3.275 5.75012 3.40625 5.75012C3.5375 5.75012 3.625 5.85012 3.625 6.00012V6.75012C3.625 6.90012 3.5375 7.00012 3.40625 7.00012ZM8.65625 7.00012H8.21875C8.0875 7.00012 8 6.90012 8 6.75012V6.00012C8 5.85012 8.0875 5.75012 8.21875 5.75012C8.35 5.75012 8.4375 5.85012 8.4375 6.00012V6.50012H8.65625C8.7875 6.50012 8.875 6.40012 8.875 6.25012V5.75012C8.875 5.60012 8.7875 5.50012 8.65625 5.50012H8.4375C8.30625 5.50012 8.21875 5.40012 8.21875 5.25012C8.21875 5.10012 8.30625 5.00012 8.4375 5.00012H8.65625C9.00625 5.00012 9.3125 5.35012 9.3125 5.75012V6.25012C9.3125 6.65012 9.00625 7.00012 8.65625 7.00012ZM14.3875 7.05012C14.3438 7.05012 14.3 7.05012 14.3 7.00012L13.9063 6.75012C13.8188 6.70012 13.775 6.55012 13.8188 6.40012C13.8625 6.30012 13.9938 6.25012 14.125 6.30012L14.5188 6.55012C14.6063 6.60012 14.65 6.75012 14.6063 6.90012C14.5188 7.00012 14.475 7.05012 14.3875 7.05012ZM13.1188 8.50012C13.0313 8.50012 12.9875 8.45012 12.9438 8.35012L12.725 7.90012C12.6813 7.80012 12.6813 7.65012 12.8125 7.55012C12.9 7.50012 13.0313 7.50012 13.1188 7.65012L13.3375 8.10012C13.3813 8.20012 13.3813 8.35012 13.25 8.45012C13.2063 8.50012 13.1625 8.50012 13.1188 8.50012ZM9.925 8.55012C9.88125 8.55012 9.8375 8.55012 9.8375 8.50012C9.75 8.45012 9.70625 8.30012 9.75 8.15012L9.96875 7.70012C10.0125 7.60012 10.1438 7.55012 10.275 7.60012C10.3625 7.65012 10.4063 7.80012 10.3625 7.95012L10.1438 8.40012C10.0563 8.50012 10.0125 8.55012 9.925 8.55012ZM10.1 2.40012C10.0125 2.40012 9.96875 2.35012 9.925 2.25012L9.70625 1.80012C9.61875 1.75012 9.6625 1.60012 9.75 1.50012C9.8375 1.45012 9.96875 1.45012 10.0563 1.60012L10.275 2.05012C10.3188 2.15012 10.3188 2.30012 10.1875 2.40012H10.1Z" fill="#000100" stroke="black" stroke-width="0.25"/>
<path d="M11.5 9C10.7563 9 10.1 8.75 9.48753 8.25C9.40003 8.15 9.35628 8 9.44378 7.9C9.53128 7.8 9.66253 7.75 9.75003 7.85C10.275 8.25 10.8875 8.5 11.5 8.5C13.2063 8.5 14.5625 6.95 14.5625 5C14.5625 3.05 13.2063 1.5 11.5 1.5C10.5813 1.5 9.75003 1.95 9.13753 2.75C9.05003 2.85 8.91878 2.85 8.83128 2.8C8.74378 2.7 8.74378 2.55 8.78753 2.45C9.48753 1.5 10.45 1 11.5 1C13.425 1 15 2.8 15 5C15 7.2 13.425 9 11.5 9Z" fill="#000100" stroke="black" stroke-width="0.25"/>
</svg>
