<svg width="56" height="56" viewBox="0 0 56 56" fill="none" xmlns="http://www.w3.org/2000/svg">
<g filter="url(#filter0_d_394_177)">
<circle cx="29" cy="29" r="12" fill="url(#paint0_linear_394_177)"/>
</g>
<path d="M32.3178 22.9057L32.7806 22.4429C33.5473 21.6762 34.7904 21.6762 35.5571 22.4429C36.3237 23.2096 36.3237 24.4527 35.5571 25.2194L35.0943 25.6821M32.3178 22.9057C32.3178 22.9057 32.3757 23.889 33.2434 24.7566C34.111 25.6243 35.0943 25.6821 35.0943 25.6821M32.3178 22.9057L28.0637 27.1598C27.7756 27.448 27.6315 27.592 27.5076 27.7509C27.3614 27.9383 27.2361 28.141 27.1339 28.3556C27.0472 28.5374 26.9828 28.7307 26.8539 29.1173L26.4414 30.355M35.0943 25.6821L30.8402 29.9362C30.552 30.2244 30.408 30.3684 30.2491 30.4924C30.0617 30.6385 29.8589 30.7638 29.6444 30.8661C29.4625 30.9528 29.2693 31.0172 28.8826 31.146L27.6449 31.5586M26.4414 30.355L26.1744 31.1559C26.111 31.3462 26.1605 31.5559 26.3023 31.6977C26.4441 31.8395 26.6538 31.889 26.8441 31.8256L27.6449 31.5586M26.4414 30.355L27.6449 31.5586" stroke="white" stroke-width="1.11892"/>
<path d="M36.132 28.9999C36.132 32.9388 32.9388 36.132 28.9999 36.132C25.061 36.132 21.8679 32.9388 21.8679 28.9999C21.8679 25.061 25.061 21.8679 28.9999 21.8679" stroke="white" stroke-width="1.11892" stroke-linecap="round"/>
<defs>
<filter id="filter0_d_394_177" x="0" y="0" width="56" height="56" filterUnits="userSpaceOnUse" color-interpolation-filters="sRGB">
<feFlood flood-opacity="0" result="BackgroundImageFix"/>
<feColorMatrix in="SourceAlpha" type="matrix" values="0 0 0 0 0 0 0 0 0 0 0 0 0 0 0 0 0 0 127 0" result="hardAlpha"/>
<feOffset dx="-1" dy="-1"/>
<feGaussianBlur stdDeviation="8"/>
<feComposite in2="hardAlpha" operator="out"/>
<feColorMatrix type="matrix" values="0 0 0 0 0 0 0 0 0 0 0 0 0 0 0 0 0 0 0.12 0"/>
<feBlend mode="normal" in2="BackgroundImageFix" result="effect1_dropShadow_394_177"/>
<feBlend mode="normal" in="SourceGraphic" in2="effect1_dropShadow_394_177" result="shape"/>
</filter>
<linearGradient id="paint0_linear_394_177" x1="29" y1="17" x2="29" y2="41" gradientUnits="userSpaceOnUse">
<stop stop-color="#6F96CD"/>
<stop offset="1" stop-color="#496EB8"/>
</linearGradient>
</defs>
</svg>
