<svg width="14" height="14" viewBox="0 0 14 14" fill="none" xmlns="http://www.w3.org/2000/svg">
<path d="M2.19367 6.60693C2.28023 6.71633 2.3288 6.86411 2.3288 7.01811C2.3288 7.17211 2.28023 7.31988 2.19367 7.42929L1.12477 8.76976L2.19367 10.108C2.28023 10.2174 2.3288 10.3652 2.3288 10.5192C2.3288 10.6732 2.28023 10.821 2.19367 10.9304C2.15033 10.9847 2.09886 11.0278 2.0422 11.0572C1.98555 11.0866 1.92482 11.1018 1.86349 11.1018C1.80216 11.1018 1.74143 11.0866 1.68477 11.0572C1.62812 11.0278 1.57665 10.9847 1.53331 10.9304L0.136881 9.18205C0.0934873 9.12778 0.059062 9.06334 0.0355742 8.99241C0.0120866 8.92148 -3.09944e-06 8.84545 -3.09944e-06 8.76866C-3.09944e-06 8.69187 0.0120866 8.61584 0.0355742 8.54491C0.059062 8.47398 0.0934873 8.40954 0.136881 8.35527L1.53331 6.60693C1.57665 6.5526 1.62812 6.5095 1.68477 6.48009C1.74143 6.45068 1.80216 6.43555 1.86349 6.43555C1.92482 6.43555 1.98555 6.45068 2.0422 6.48009C2.09886 6.5095 2.15033 6.5526 2.19367 6.60693Z" fill="black"/>
<path d="M8.22898 0.225834C8.10514 0.22641 7.98646 0.287616 7.89872 0.39617C7.81098 0.504725 7.76125 0.65187 7.76031 0.805677V3.14268C7.76031 4.10174 8.39586 4.89103 9.1681 4.89103H11.0499C11.1694 4.8819 11.2817 4.81648 11.3637 4.70813C11.4458 4.59977 11.4914 4.45662 11.4914 4.30788C11.4914 4.15914 11.4458 4.016 11.3637 3.90764C11.2817 3.79928 11.1694 3.73386 11.0499 3.72473H9.1681C9.10644 3.72562 9.04525 3.71116 8.98817 3.6822C8.93108 3.65324 8.87924 3.61036 8.83572 3.55611C8.7922 3.50185 8.75787 3.43731 8.73477 3.3663C8.71166 3.2953 8.70025 3.21926 8.7012 3.14268V0.805677C8.70027 0.651106 8.65004 0.503297 8.56154 0.394617C8.47303 0.285938 8.35345 0.225247 8.22898 0.225834Z" fill="black"/>
<path d="M5.0431 2.27965e-07C4.5982 0.00173388 4.17193 0.186351 3.85694 0.51373C3.54195 0.841108 3.36369 1.28479 3.3609 1.74835V6.41575C3.36063 6.49284 3.37499 6.56924 3.40318 6.64052C3.43137 6.7118 3.47281 6.77657 3.52514 6.83109C3.57746 6.8856 3.63962 6.92879 3.70803 6.95816C3.77644 6.98753 3.84976 7.0025 3.92375 7.0022C3.99739 7.00192 4.07025 6.98652 4.13817 6.95689C4.2061 6.92726 4.26776 6.88398 4.31963 6.82952C4.3715 6.77507 4.41257 6.7105 4.44049 6.6395C4.46842 6.5685 4.48265 6.49247 4.48237 6.41575V1.74835C4.48122 1.67139 4.49495 1.59499 4.52275 1.52368C4.55055 1.45238 4.59184 1.38764 4.64417 1.33332C4.6965 1.279 4.75879 1.23622 4.82733 1.20753C4.89587 1.17883 4.96925 1.16481 5.0431 1.1663H9.85269L12.8785 4.32346V12.2517C12.8794 12.328 12.8656 12.4038 12.8379 12.4746C12.8102 12.5453 12.7693 12.6096 12.7174 12.6636C12.6656 12.7177 12.6039 12.7603 12.536 12.7892C12.4681 12.818 12.3953 12.8324 12.322 12.8315H5.0431C4.96943 12.833 4.89622 12.819 4.82783 12.7905C4.75943 12.7619 4.69724 12.7193 4.64494 12.6652C4.59264 12.6112 4.5513 12.5467 4.52338 12.4756C4.49545 12.4046 4.4815 12.3284 4.48237 12.2517V11.0831C4.48237 10.9286 4.42358 10.7803 4.31888 10.6708C4.21418 10.5613 4.0721 10.4995 3.92375 10.4989C3.84994 10.4986 3.7768 10.5135 3.70852 10.5427C3.64024 10.572 3.57818 10.615 3.52589 10.6692C3.47359 10.7235 3.4321 10.788 3.40379 10.8591C3.37548 10.9301 3.3609 11.0062 3.3609 11.0831V12.2517C3.3609 13.2107 4.12265 14 5.0431 14H12.322C12.7665 13.9983 13.1924 13.8135 13.5067 13.486C13.821 13.1585 13.9983 12.7148 14 12.2517V4.08315C14.0003 4.00629 13.9861 3.93012 13.9582 3.85899C13.9302 3.78787 13.889 3.72319 13.8371 3.66866L10.479 0.171969C10.4269 0.117401 10.3649 0.0741162 10.2966 0.0446034C10.2283 0.0150905 10.1551 -6.78007e-05 10.0812 2.27965e-07H5.0431Z" fill="black"/>
<path d="M2.71931 9.33476C2.60073 9.32562 2.4894 9.26021 2.40801 9.15185C2.32662 9.04349 2.28131 8.90035 2.28131 8.75161C2.28131 8.60286 2.32662 8.45972 2.40801 8.35136C2.4894 8.243 2.60073 8.17759 2.71931 8.16846H8.31031C8.43407 8.16846 8.55277 8.23001 8.64028 8.33958C8.7278 8.44915 8.77696 8.59776 8.77696 8.75271C8.77696 8.90766 8.7278 9.05627 8.64028 9.16584C8.55277 9.27541 8.43407 9.33696 8.31031 9.33696L2.71931 9.33476Z" fill="black"/>
</svg>
