<svg width="14" height="14" viewBox="0 0 14 14" fill="none" xmlns="http://www.w3.org/2000/svg">
<g clip-path="url(#clip0_542_6)">
<path d="M4.66737 2.27965e-07C4.20381 0.00173388 3.75966 0.186351 3.43146 0.51373C3.10325 0.841108 2.91752 1.28479 2.91462 1.74835V6.41575C2.91432 6.49285 2.92929 6.56924 2.95866 6.64052C2.98803 6.7118 3.03122 6.77657 3.08574 6.83109C3.14025 6.8856 3.20502 6.92879 3.2763 6.95816C3.34758 6.98753 3.42398 7.0025 3.50107 7.00221C3.5778 7.00192 3.65371 6.98652 3.72449 6.95689C3.79526 6.92726 3.85951 6.88398 3.91356 6.82952C3.9676 6.77507 4.0104 6.7105 4.03949 6.6395C4.06858 6.5685 4.08341 6.49247 4.08312 6.41575V1.74835C4.08192 1.67139 4.09623 1.59499 4.1252 1.52368C4.15416 1.45238 4.19719 1.38764 4.25171 1.33332C4.30624 1.279 4.37114 1.23622 4.44255 1.20753C4.51396 1.17883 4.59042 1.16481 4.66737 1.1663H9.67871L12.8315 4.32346V12.2517C12.8324 12.328 12.818 12.4038 12.7891 12.4746C12.7603 12.5453 12.7176 12.6096 12.6636 12.6636C12.6096 12.7177 12.5453 12.7603 12.4746 12.7892C12.4038 12.818 12.328 12.8324 12.2516 12.8315H4.66737C4.59061 12.833 4.51434 12.819 4.44307 12.7905C4.37181 12.7619 4.30701 12.7193 4.25251 12.6652C4.19802 12.6112 4.15495 12.5467 4.12585 12.4756C4.09675 12.4046 4.08222 12.3284 4.08312 12.2517V11.0831C4.08312 10.9286 4.02187 10.7803 3.91278 10.6708C3.80368 10.5613 3.65564 10.4995 3.50107 10.4989C3.42416 10.4986 3.34795 10.5135 3.27681 10.5427C3.20567 10.572 3.141 10.615 3.08652 10.6692C3.03203 10.7235 2.9888 10.788 2.9593 10.8591C2.9298 10.9301 2.91462 11.0062 2.91462 11.0831V12.2517C2.91462 13.2107 3.70832 14 4.66737 14H12.2516C12.7148 13.9983 13.1585 13.8135 13.486 13.486C13.8135 13.1585 13.9982 12.7148 14 12.2517V4.08315C14.0003 4.00629 13.9855 3.93012 13.9564 3.85899C13.9273 3.78787 13.8844 3.72319 13.8302 3.66866L10.3313 0.171969C10.277 0.117401 10.2124 0.0741162 10.1412 0.0446034C10.0701 0.0150905 9.99383 -6.78007e-05 9.91682 2.27965e-07H4.66737Z" fill="black"/>
<path d="M0.58207 9.33476C0.433607 9.32562 0.294218 9.26021 0.192321 9.15185C0.0904234 9.04349 0.0336914 8.90035 0.0336914 8.75161C0.0336914 8.60286 0.0904234 8.45972 0.192321 8.35136C0.294218 8.243 0.433607 8.17759 0.58207 8.16846H7.58207C7.73702 8.16846 7.88563 8.23001 7.9952 8.33958C8.10477 8.44915 8.16632 8.59776 8.16632 8.75271C8.16632 8.90766 8.10477 9.05627 7.9952 9.16584C7.88563 9.27541 7.73702 9.33696 7.58207 9.33696L0.58207 9.33476Z" fill="black"/>
<path d="M8.07238 6.49389C7.964 6.6033 7.9032 6.75107 7.9032 6.90507C7.9032 7.05907 7.964 7.20685 8.07238 7.31625L9.41065 8.65673L8.07238 9.99499C7.964 10.1044 7.9032 10.2522 7.9032 10.4062C7.9032 10.5602 7.964 10.7079 8.07238 10.8174C8.12665 10.8717 8.19109 10.9148 8.26202 10.9442C8.33295 10.9736 8.40898 10.9887 8.48577 10.9887C8.56256 10.9887 8.63859 10.9736 8.70952 10.9442C8.78045 10.9148 8.84489 10.8717 8.89916 10.8174L10.6475 9.06901C10.7018 9.01475 10.7449 8.95031 10.7743 8.87937C10.8037 8.80844 10.8189 8.73241 10.8189 8.65562C10.8189 8.57884 10.8037 8.5028 10.7743 8.43187C10.7449 8.36094 10.7018 8.2965 10.6475 8.24224L8.89916 6.49389C8.84489 6.43956 8.78045 6.39646 8.70952 6.36705C8.63859 6.33765 8.56256 6.32251 8.48577 6.32251C8.40898 6.32251 8.33295 6.33765 8.26202 6.36705C8.19109 6.39646 8.12665 6.43956 8.07238 6.49389Z" fill="black"/>
<path d="M9.04982 0.564457C8.89601 0.565033 8.74863 0.626239 8.63967 0.734793C8.5307 0.843348 8.46893 0.990493 8.46777 1.1443V3.48131C8.46777 4.44036 9.25707 5.22965 10.2161 5.22965H12.5531C12.7016 5.22052 12.841 5.15511 12.9429 5.04675C13.0448 4.93839 13.1015 4.79525 13.1015 4.6465C13.1015 4.49776 13.0448 4.35462 12.9429 4.24626C12.841 4.1379 12.7016 4.07249 12.5531 4.06335H10.2161C10.1395 4.06425 10.0636 4.04979 9.99266 4.02082C9.92176 3.99186 9.85739 3.94899 9.80334 3.89473C9.74928 3.84047 9.70665 3.77593 9.67796 3.70493C9.64927 3.63392 9.63509 3.55788 9.63628 3.48131V1.1443C9.63511 0.989729 9.57274 0.84192 9.46282 0.73324C9.3529 0.624561 9.2044 0.56387 9.04982 0.564457Z" fill="black"/>
</g>
<defs>
<clipPath id="clip0_542_6">
<rect width="14" height="14" fill="white"/>
</clipPath>
</defs>
</svg>
