<svg width="14" height="14" viewBox="0 0 14 14" fill="none" xmlns="http://www.w3.org/2000/svg">
<g clip-path="url(#clip0_542_145)">
<path d="M5.25 14H13.4167C13.7667 14 14 13.7667 14 13.4167V0.583333C14 0.233333 13.7667 0 13.4167 0H5.25C4.9 0 4.66667 0.233333 4.66667 0.583333V4.66667C4.66667 5.01667 4.9 5.25 5.25 5.25C5.6 5.25 5.83333 5.01667 5.83333 4.66667V1.16667H12.8333V12.8333H5.83333V9.33333C5.83333 8.98333 5.6 8.75 5.25 8.75C4.9 8.75 4.66667 8.98333 4.66667 9.33333V13.4167C4.66667 13.7667 4.9 14 5.25 14Z" fill="black"/>
<path d="M0.583353 7.58341H9.33335C9.68335 7.58341 9.91669 7.35008 9.91669 7.00008C9.91669 6.65008 9.68335 6.41675 9.33335 6.41675H0.583353C0.233353 6.41675 2.00272e-05 6.65008 2.00272e-05 7.00008C2.00272e-05 7.35008 0.233353 7.58341 0.583353 7.58341Z" fill="black"/>
<path d="M0.583333 7.58325C0.758332 7.58325 0.875 7.52492 0.991666 7.40825L3.325 5.07492C3.55833 4.84158 3.55833 4.49159 3.325 4.25825C3.09167 4.02492 2.74167 4.02492 2.50833 4.25825L0.174999 6.59159C-0.0583346 6.82492 -0.0583346 7.17492 0.174999 7.40825C0.291666 7.52492 0.408333 7.58325 0.583333 7.58325Z" fill="black"/>
<path d="M2.91667 9.91675C3.09167 9.91675 3.20833 9.85842 3.325 9.74175C3.55833 9.50841 3.55833 9.15841 3.325 8.92508L0.991666 6.59175C0.758333 6.35841 0.408332 6.35841 0.174999 6.59175C-0.0583346 6.82508 -0.0583346 7.17508 0.174999 7.40841L2.50833 9.74175C2.625 9.85842 2.74167 9.91675 2.91667 9.91675Z" fill="black"/>
</g>
<defs>
<clipPath id="clip0_542_145">
<rect width="14" height="14" fill="white" transform="matrix(-1 0 0 1 14 0)"/>
</clipPath>
</defs>
</svg>
