<svg width="16" height="16" viewBox="0 0 16 16" fill="none" xmlns="http://www.w3.org/2000/svg">
<path d="M1 9.04905V6.94135L2.49701 6.65049C2.62145 6.13472 2.81682 5.6388 3.0775 5.17699L2.19193 3.90956L3.65225 2.39382L4.90449 3.21041C5.46934 2.83594 6.09605 2.56508 6.75541 2.41046L7.02827 1H9.13098L9.40415 2.41014C9.99278 2.54966 10.5556 2.78197 11.0716 3.09842L12.2124 2.32503L13.7002 3.81517L12.941 4.94309C13.2788 5.4786 13.5257 6.0666 13.6715 6.68313L15 6.94135V9.04905L13.6839 9.30503C13.5385 9.94421 13.2846 10.5536 12.9333 11.1065L13.6932 12.2354L12.207 13.7255L11.0582 12.9473C10.5437 13.2609 9.98315 13.491 9.39713 13.6292L9.13194 15H7.03018L6.76499 13.6292C6.14275 13.4827 5.54945 13.2325 5.0098 12.8891L3.77096 13.7274L2.2848 12.2373L3.14069 10.9657C2.8397 10.4606 2.61828 9.91184 2.48425 9.33895L1 9.04905ZM8 10.4426C8.48275 10.4426 8.95467 10.2991 9.35608 10.0303C9.7575 9.76138 10.0704 9.37919 10.2551 8.93201C10.4399 8.48483 10.4883 7.99275 10.3941 7.51802C10.2999 7.04328 10.0675 6.6072 9.72613 6.26493C9.38478 5.92267 8.94986 5.68959 8.47639 5.59517C8.00292 5.50076 7.51216 5.54925 7.06617 5.73451C6.62018 5.91977 6.23901 6.23349 5.97085 6.63597C5.70269 7.03846 5.55959 7.51164 5.55965 7.99568C5.55974 8.64461 5.81687 9.26693 6.27451 9.72579C6.73214 10.1846 7.35281 10.4425 8 10.4426Z" stroke="black" stroke-miterlimit="10"/>
</svg>
