<svg width="30" height="30" viewBox="0 0 30 30" fill="none" xmlns="http://www.w3.org/2000/svg">
<path d="M15.0001 15.3511C7.46333 15.3511 1.33173 21.4827 1.33173 29.0194C1.33173 29.5609 1.77071 29.9999 2.31223 29.9999H27.6879C28.2294 29.9999 28.6684 29.5609 28.6684 29.0194C28.6683 21.4827 22.5367 15.3511 15.0001 15.3511ZM3.33335 28.039C3.76173 22.8974 7.52731 18.6892 12.4519 17.5918L13.6761 18.8161L13.2289 24.2311C13.2103 24.4557 13.2715 24.6796 13.4017 24.8637L14.6494 26.6267C14.7299 26.7404 14.8606 26.8081 14.9999 26.8081C15.1393 26.8081 15.27 26.7405 15.3505 26.6267L16.5982 24.8637C16.7284 24.6797 16.7896 24.4557 16.7711 24.2311L16.3238 18.8161L17.5481 17.5918C22.4726 18.6892 26.2382 22.8974 26.6666 28.039H3.33335Z" fill="white"/>
<path d="M21.9755 2.1385C21.4408 1.95979 20.8658 2.15414 20.5422 2.58416L19.1081 4.48945L15.8724 0.477832C15.6273 0.174199 15.2631 0 14.8728 0C14.4824 0 14.118 0.174258 13.8731 0.478008L10.6473 4.47732L9.46713 2.86951C9.14375 2.42895 8.56596 2.234 8.03194 2.40902C7.50289 2.58229 7.14752 3.07283 7.14752 3.62941V11.542C7.14752 12.4559 7.89102 13.1994 8.80491 13.1994H21.1951C22.109 13.1994 22.8525 12.4559 22.8525 11.542V3.35648C22.8525 2.80336 22.5 2.31381 21.9755 2.1385ZM9.10854 5.6949L9.82034 6.66463C10.0004 6.90996 10.2842 7.05773 10.5884 7.06465C10.8921 7.07051 11.1828 6.93686 11.3739 6.69996L14.8727 2.36221L18.3715 6.69996C18.5613 6.93522 18.8491 7.07039 19.1512 7.06477C19.4534 7.05967 19.7364 6.91553 19.9181 6.674L20.8914 5.38084V8.03238H9.10854V5.6949ZM20.8915 11.2383H9.10854V9.99346H20.8914V11.2383H20.8915Z" fill="white"/>
</svg>
