<svg width="30" height="30" viewBox="0 0 30 30" fill="none" xmlns="http://www.w3.org/2000/svg">
<g clip-path="url(#clip0_310_1092)">
<path d="M24.6447 0H5.35541C5.06089 0 4.82214 0.238749 4.82214 0.533266V29.4667C4.82214 29.7614 5.06077 30 5.35529 30H24.6446C24.9391 30 25.1777 29.7613 25.1777 29.4667V0.533266C25.1779 0.238749 24.9391 0 24.6447 0ZM5.88856 1.29809L14.4668 4.45984V25.54L5.88856 28.7018V1.29809ZM24.1114 28.9336H8.34384L15.1845 26.4123C15.3941 26.3351 15.5332 26.1352 15.5332 25.912V4.0881C15.5332 3.86479 15.394 3.66507 15.1845 3.58772L8.34396 1.06641H24.1114V28.9336Z" fill="white"/>
<path d="M12.7355 13.1514C11.9754 13.1514 11.3799 13.9635 11.3799 15.0003C11.3799 16.037 11.9754 16.8492 12.7355 16.8492C13.4957 16.8492 14.0911 16.0371 14.0911 15.0003C14.0911 13.9635 13.4957 13.1514 12.7355 13.1514ZM12.7354 15.7824C12.6659 15.7652 12.4463 15.495 12.4463 15.0003C12.4463 14.5056 12.6659 14.2355 12.7354 14.218C12.805 14.2356 13.0247 14.5062 13.0247 15.0003C13.0247 15.4943 12.805 15.7649 12.7354 15.7824Z" fill="white"/>
</g>
<defs>
<clipPath id="clip0_310_1092">
<rect width="30" height="30" fill="white"/>
</clipPath>
</defs>
</svg>
