<svg width="30" height="30" viewBox="0 0 30 30" fill="none" xmlns="http://www.w3.org/2000/svg">
<g clip-path="url(#clip0_303_341)">
<path d="M24.375 5.625V9.375H5.625V5.625H24.375ZM24.375 3.75H5.625C5.12772 3.75 4.65081 3.94754 4.29917 4.29917C3.94754 4.65081 3.75 5.12772 3.75 5.625V9.375C3.75 9.87228 3.94754 10.3492 4.29917 10.7008C4.65081 11.0525 5.12772 11.25 5.625 11.25H24.375C24.8723 11.25 25.3492 11.0525 25.7008 10.7008C26.0525 10.3492 26.25 9.87228 26.25 9.375V5.625C26.25 5.12772 26.0525 4.65081 25.7008 4.29917C25.3492 3.94754 24.8723 3.75 24.375 3.75Z" fill="white"/>
<path d="M9.375 15V24.375H5.625V15H9.375ZM9.375 13.125H5.625C5.12772 13.125 4.65081 13.3225 4.29917 13.6742C3.94754 14.0258 3.75 14.5027 3.75 15V24.375C3.75 24.8723 3.94754 25.3492 4.29917 25.7008C4.65081 26.0525 5.12772 26.25 5.625 26.25H9.375C9.87228 26.25 10.3492 26.0525 10.7008 25.7008C11.0525 25.3492 11.25 24.8723 11.25 24.375V15C11.25 14.5027 11.0525 14.0258 10.7008 13.6742C10.3492 13.3225 9.87228 13.125 9.375 13.125Z" fill="white"/>
<path d="M24.375 15V24.375H15V15H24.375ZM24.375 13.125H15C14.5027 13.125 14.0258 13.3225 13.6742 13.6742C13.3225 14.0258 13.125 14.5027 13.125 15V24.375C13.125 24.8723 13.3225 25.3492 13.6742 25.7008C14.0258 26.0525 14.5027 26.25 15 26.25H24.375C24.8723 26.25 25.3492 26.0525 25.7008 25.7008C26.0525 25.3492 26.25 24.8723 26.25 24.375V15C26.25 14.5027 26.0525 14.0258 25.7008 13.6742C25.3492 13.3225 24.8723 13.125 24.375 13.125Z" fill="white"/>
</g>
<defs>
<clipPath id="clip0_303_341">
<rect width="30" height="30" fill="white"/>
</clipPath>
</defs>
</svg>
